# xmcd
#
# Track frame offsets:
#	150
#	16497
#	32795
#	46515
#	62157
#	88935
#	107927
#	120455
#	136877
#	147110
#	169427
#
# Disc length: 2444 seconds
#
# Revision: 1
# Processed by: cddbd v1.5.2PL0 Copyright (c) Steve Scherf et al.
# Submitted via: audiograbber 1.83.01
#
DISCID=96098a0b
DTITLE=Elvin Bishop - Is You Or Is You Ain't My Baby
DYEAR=1981
DGENRE=Blues
TTITLE0=Is You Or Is You Ain't My Baby
TTITLE1=Midnight Hour Blues
TTITLE2=Honest I Do
TTITLE3=Drunk
TTITLE4=Sweet Cocaine
TTITLE5=Good Good Rockin'
TTITLE6=We Must Go On
TTITLE7=Big Diamonds
TTITLE8=Red Hot
TTITLE9=Another Mule
TTITLE10=Catfish Blues
EXTD=
EXTT0=
EXTT1=
EXTT2=
EXTT3=
EXTT4=
EXTT5=
EXTT6=
EXTT7=
EXTT8=
EXTT9=
EXTT10=
PLAYORDER=
